<svg data-v-423bf9ae="" xmlns="http://www.w3.org/2000/svg" viewBox="0 0 439.01046537309355 60" class="font"><!----><!----><!----><g data-v-423bf9ae="" id="1b00ec2b-a9a5-418a-bfac-e2f732608b5d" fill="#FFFFFF" transform="matrix(5.70884859118442,0,0,5.70884859118442,-3.9962012719275606,-18.782111647221456)"><path d="M2.52 6.29L2.52 7.11Q2.63 6.86 2.86 6.68Q3.08 6.50 3.36 6.38Q3.64 6.26 3.93 6.19Q4.23 6.12 4.48 6.10L4.48 6.10Q5.01 6.06 5.54 6.24Q6.06 6.41 6.48 6.85L6.48 6.85Q6.61 6.99 6.71 7.13Q6.82 7.28 6.89 7.46L6.89 7.46Q6.93 7.15 7.14 6.91Q7.35 6.66 7.65 6.49Q7.95 6.31 8.30 6.22Q8.65 6.12 8.99 6.10L8.99 6.10Q9.53 6.06 10.06 6.24Q10.58 6.41 11.03 6.85L11.03 6.85Q11.66 7.50 11.66 8.74L11.66 8.74L11.66 13.52L9.84 13.52Q9.84 13.29 9.84 12.88Q9.84 12.47 9.84 11.99Q9.83 11.51 9.83 10.99Q9.83 10.47 9.81 10.01Q9.80 9.55 9.78 9.18Q9.76 8.82 9.73 8.65L9.73 8.65Q9.58 7.74 8.71 7.70L8.71 7.70Q8.22 7.69 7.89 7.98Q7.56 8.27 7.57 8.69L7.57 8.69Q7.45 8.65 7.32 8.55Q7.20 8.44 7.10 8.30L7.10 8.30Q7.11 8.41 7.11 8.52Q7.11 8.62 7.11 8.74L7.11 8.74L7.11 13.52L5.32 13.52Q5.32 13.29 5.33 12.88Q5.33 12.47 5.33 11.99Q5.33 11.51 5.33 10.99Q5.33 10.47 5.32 10.01Q5.31 9.55 5.28 9.18Q5.25 8.82 5.21 8.65L5.21 8.65Q5.10 8.20 4.79 7.98Q4.48 7.76 4.12 7.76L4.12 7.76Q3.63 7.76 3.36 8.02Q3.09 8.27 3.09 8.69L3.09 8.69Q2.93 8.64 2.76 8.46Q2.59 8.29 2.52 8.09L2.52 8.09L2.52 13.52L0.70 13.52L0.70 6.29L2.52 6.29ZM16.58 6.10L16.58 6.10Q17.68 6.10 18.54 6.64Q19.40 7.17 19.89 7.99Q20.38 8.82 20.42 9.83Q20.45 10.84 19.91 11.80L19.91 11.80Q19.45 12.60 18.70 13.08Q17.96 13.55 17.12 13.67Q16.28 13.79 15.44 13.53Q14.59 13.27 13.92 12.60L13.92 12.60Q13.16 11.83 12.91 10.82Q12.66 9.81 12.95 8.81L12.95 8.81Q13.08 8.40 13.36 8.13Q13.65 7.87 14.01 7.74Q14.38 7.62 14.77 7.63Q15.16 7.64 15.50 7.79Q15.83 7.94 16.07 8.21Q16.30 8.48 16.34 8.88L16.34 8.88Q16.13 8.72 15.83 8.71Q15.54 8.71 15.27 8.84Q14.99 8.97 14.80 9.25Q14.62 9.52 14.62 9.93L14.62 9.93Q14.62 10.63 14.91 11.09Q15.20 11.55 15.64 11.78Q16.09 12.01 16.60 12.01Q17.11 12.01 17.55 11.77Q17.99 11.54 18.28 11.07Q18.58 10.60 18.58 9.90L18.58 9.90Q18.58 9.35 18.38 8.93Q18.19 8.51 17.86 8.24Q17.53 7.97 17.09 7.86Q16.66 7.76 16.17 7.85L16.17 7.85Q15.96 7.60 15.66 7.46Q15.36 7.31 15.01 7.26Q14.66 7.21 14.31 7.27Q13.96 7.34 13.65 7.52L13.65 7.52Q14.21 6.85 14.95 6.48Q15.69 6.10 16.58 6.10ZM23.31 3.72L23.31 3.72L23.31 7.27Q23.42 7.03 23.65 6.85Q23.87 6.66 24.14 6.55Q24.42 6.43 24.70 6.36Q24.99 6.29 25.24 6.27L25.24 6.27Q25.76 6.24 26.26 6.41Q26.77 6.58 27.19 7.01L27.19 7.01Q27.80 7.66 27.80 8.86L27.80 8.86L27.80 13.52L26.05 13.52Q26.05 13.30 26.06 12.90Q26.07 12.50 26.07 12.03Q26.07 11.56 26.07 11.05Q26.07 10.54 26.05 10.09Q26.04 9.63 26.01 9.28Q25.98 8.93 25.94 8.76L25.94 8.76Q25.83 8.34 25.54 8.12Q25.24 7.90 24.88 7.90L24.88 7.90Q24.40 7.90 24.14 8.15Q23.88 8.40 23.88 8.81L23.88 8.81Q23.73 8.76 23.55 8.60Q23.38 8.43 23.31 8.23L23.31 8.23L23.31 13.52L21.55 13.52L21.55 5.15Q21.55 4.48 22.02 4.10Q22.50 3.71 23.31 3.72ZM34.61 13.52L34.61 12.73Q34.08 13.24 33.45 13.48Q32.83 13.72 32.20 13.70Q31.57 13.68 30.98 13.41Q30.38 13.15 29.93 12.65Q29.47 12.15 29.20 11.46Q28.92 10.77 28.92 9.88L28.92 9.88Q28.92 9.04 29.22 8.33Q29.51 7.62 30.01 7.11Q30.51 6.61 31.14 6.34Q31.78 6.06 32.47 6.09L32.47 6.09Q33.14 6.12 33.54 6.39Q33.95 6.66 34.14 7.03Q34.33 7.39 34.34 7.76Q34.34 8.13 34.22 8.36L34.22 8.36Q33.98 8.01 33.54 7.89Q33.11 7.77 32.70 7.77L32.70 7.77Q32.06 7.77 31.63 8.09Q31.19 8.40 30.97 8.88Q30.74 9.35 30.74 9.91Q30.73 10.46 30.95 10.93Q31.16 11.41 31.61 11.73Q32.05 12.04 32.70 12.04L32.70 12.04Q33.26 12.04 33.63 11.79Q33.99 11.54 34.21 11.14Q34.43 10.74 34.52 10.24Q34.61 9.74 34.61 9.25L34.61 9.25L34.61 7.04L34.61 6.27L36.43 6.27L36.43 13.52L34.61 13.52ZM39.63 6.27L39.63 7.11Q39.75 6.86 39.98 6.68Q40.21 6.50 40.49 6.37Q40.77 6.24 41.06 6.17Q41.36 6.10 41.61 6.09L41.61 6.09Q42.14 6.06 42.66 6.24Q43.18 6.41 43.61 6.85L43.61 6.85Q44.24 7.50 44.24 8.74L44.24 8.74L44.24 13.52L42.45 13.52Q42.45 13.29 42.45 12.88Q42.46 12.47 42.46 11.99Q42.46 11.51 42.46 10.99Q42.46 10.47 42.45 10.01Q42.43 9.55 42.41 9.18Q42.38 8.82 42.34 8.65L42.34 8.65Q42.22 8.20 41.91 7.98Q41.59 7.76 41.23 7.76L41.23 7.76Q40.75 7.76 40.49 8.02Q40.22 8.27 40.22 8.69L40.22 8.69Q40.05 8.64 39.89 8.46Q39.72 8.29 39.63 8.09L39.63 8.09L39.63 8.47L39.63 13.52L37.83 13.52L37.83 6.27L39.63 6.27ZM45.92 13.52L45.92 7.74Q45.95 7.32 46.09 7.04Q46.24 6.76 46.48 6.59Q46.72 6.43 47.03 6.35Q47.35 6.27 47.73 6.27L47.73 6.27L47.73 13.52L45.92 13.52ZM46.83 3.29L46.83 3.29Q47.31 3.29 47.64 3.64L47.64 3.64Q47.99 3.98 47.99 4.47L47.99 4.47Q47.99 4.96 47.66 5.31L47.66 5.31Q47.46 5.50 47.20 5.58Q46.94 5.66 46.68 5.73Q46.42 5.81 46.21 5.92Q45.99 6.02 45.91 6.26L45.91 6.26Q45.84 6.03 45.76 5.68Q45.68 5.33 45.66 4.96Q45.64 4.58 45.70 4.22Q45.77 3.86 46.00 3.63L46.00 3.63Q46.34 3.29 46.83 3.29ZM52.99 8.50L52.99 8.50Q52.88 8.23 52.68 8.07Q52.49 7.91 52.26 7.83Q52.02 7.74 51.81 7.74Q51.59 7.73 51.45 7.78L51.45 7.78Q51.20 7.87 51.12 8.07Q51.04 8.27 51.20 8.46L51.20 8.46Q51.32 8.60 51.60 8.73Q51.87 8.86 52.21 9.02Q52.54 9.18 52.90 9.39Q53.26 9.59 53.55 9.87Q53.84 10.15 54.03 10.53Q54.22 10.91 54.22 11.42L54.22 11.42Q54.22 12.03 53.96 12.48Q53.69 12.94 53.25 13.22Q52.81 13.50 52.26 13.60Q51.70 13.71 51.13 13.62Q50.57 13.54 50.04 13.24Q49.50 12.94 49.11 12.42L49.11 12.42L50.23 11.21Q50.58 11.63 50.97 11.82Q51.35 12.00 51.68 12.02Q52.01 12.04 52.23 11.92Q52.46 11.80 52.51 11.60Q52.56 11.40 52.39 11.15Q52.22 10.91 51.74 10.67L51.74 10.67Q51.30 10.44 50.87 10.21Q50.44 9.97 50.11 9.67Q49.78 9.38 49.58 9.02Q49.38 8.65 49.38 8.16L49.38 8.16Q49.38 7.66 49.59 7.27Q49.80 6.87 50.15 6.61Q50.50 6.34 50.95 6.22Q51.39 6.09 51.87 6.10L51.87 6.10Q52.68 6.15 53.11 6.46Q53.54 6.78 53.64 7.18Q53.75 7.57 53.57 7.95Q53.40 8.33 52.99 8.50ZM57.11 3.72L57.11 3.72L57.11 7.27Q57.22 7.03 57.44 6.85Q57.67 6.66 57.94 6.55Q58.21 6.43 58.50 6.36Q58.79 6.29 59.04 6.27L59.04 6.27Q59.56 6.24 60.06 6.41Q60.56 6.58 60.98 7.01L60.98 7.01Q61.60 7.66 61.60 8.86L61.60 8.86L61.60 13.52L59.85 13.52Q59.85 13.30 59.86 12.90Q59.86 12.50 59.86 12.03Q59.86 11.56 59.86 11.05Q59.86 10.54 59.85 10.09Q59.84 9.63 59.81 9.28Q59.78 8.93 59.74 8.76L59.74 8.76Q59.63 8.34 59.33 8.12Q59.04 7.90 58.67 7.90L58.67 7.90Q58.20 7.90 57.94 8.15Q57.68 8.40 57.68 8.81L57.68 8.81Q57.53 8.76 57.35 8.60Q57.18 8.43 57.11 8.23L57.11 8.23L57.11 13.52L55.34 13.52L55.34 5.15Q55.34 4.48 55.82 4.10Q56.29 3.71 57.11 3.72ZM64.44 11.73L64.44 11.73Q64.88 11.73 65.17 12.04L65.17 12.04Q65.48 12.33 65.48 12.77L65.48 12.77Q65.48 13.20 65.17 13.50L65.17 13.50Q64.88 13.80 64.44 13.80L64.44 13.80Q64.02 13.80 63.71 13.50L63.71 13.50Q63.42 13.20 63.42 12.77L63.42 12.77Q63.42 12.33 63.71 12.04L63.71 12.04Q64.02 11.73 64.44 11.73ZM67.72 13.52L67.72 7.74Q67.75 7.32 67.89 7.04Q68.04 6.76 68.28 6.59Q68.52 6.43 68.83 6.35Q69.15 6.27 69.52 6.27L69.52 6.27L69.52 13.52L67.72 13.52ZM68.63 3.29L68.63 3.29Q69.10 3.29 69.44 3.64L69.44 3.64Q69.79 3.98 69.79 4.47L69.79 4.47Q69.79 4.96 69.45 5.31L69.45 5.31Q69.26 5.50 69.00 5.58Q68.74 5.66 68.48 5.73Q68.22 5.81 68.00 5.92Q67.79 6.02 67.70 6.26L67.70 6.26Q67.63 6.03 67.56 5.68Q67.48 5.33 67.46 4.96Q67.44 4.58 67.50 4.22Q67.56 3.86 67.80 3.63L67.80 3.63Q68.14 3.29 68.63 3.29ZM73.00 6.27L73.00 7.11Q73.11 6.86 73.34 6.68Q73.57 6.50 73.85 6.37Q74.13 6.24 74.42 6.17Q74.72 6.10 74.97 6.09L74.97 6.09Q75.50 6.06 76.02 6.24Q76.54 6.41 76.97 6.85L76.97 6.85Q77.60 7.50 77.60 8.74L77.60 8.74L77.60 13.52L75.81 13.52Q75.81 13.29 75.82 12.88Q75.82 12.47 75.82 11.99Q75.82 11.51 75.82 10.99Q75.82 10.47 75.81 10.01Q75.80 9.55 75.77 9.18Q75.74 8.82 75.70 8.65L75.70 8.65Q75.59 8.20 75.27 7.98Q74.96 7.76 74.59 7.76L74.59 7.76Q74.12 7.76 73.85 8.02Q73.58 8.27 73.58 8.69L73.58 8.69Q73.42 8.64 73.25 8.46Q73.08 8.29 73.00 8.09L73.00 8.09L73.00 8.47L73.00 13.52L71.19 13.52L71.19 6.27L73.00 6.27Z"></path></g><!----><!----></svg>